<?xml version="1.0" standalone="no"?>
<!DOCTYPE svg PUBLIC "-//W3C//DTD SVG 20010904//EN"
 "http://www.w3.org/TR/2001/REC-SVG-20010904/DTD/svg10.dtd">
<svg version="1.0" xmlns="http://www.w3.org/2000/svg"
 width="512.000000pt" height="512.000000pt" viewBox="0 0 512.000000 512.000000"
 preserveAspectRatio="xMidYMid meet">

<g transform="translate(0.000000,512.000000) scale(0.100000,-0.100000)"
fill="#000000" stroke="none">
<path d="M2086 4874 c-251 -45 -458 -153 -637 -333 -108 -108 -186 -220 -253
-364 -35 -75 -50 -97 -68 -101 -13 -3 -79 -7 -148 -10 -276 -11 -506 -112
-691 -303 -128 -132 -212 -279 -261 -461 -31 -115 -31 -353 0 -476 24 -97 90
-245 143 -323 151 -223 386 -377 649 -427 73 -14 290 -16 1895 -16 1770 0
1814 0 1889 20 232 59 415 235 488 470 30 97 32 282 4 375 -53 177 -186 342
-341 422 -94 48 -173 71 -282 79 -43 4 -86 11 -96 16 -10 5 -38 52 -62 103
-53 115 -90 171 -169 254 -156 163 -357 254 -591 268 -57 3 -109 11 -122 19
-12 7 -46 64 -76 126 -205 423 -617 681 -1081 677 -61 0 -147 -7 -190 -15z
m148 -175 c51 -24 66 -108 25 -145 -10 -9 -60 -25 -111 -35 -226 -45 -392
-191 -488 -428 -18 -45 -42 -88 -53 -96 -49 -35 -129 -4 -142 54 -4 19 3 51
20 97 109 291 334 495 604 549 85 17 114 18 145 4z m-1474 -914 c27 -28 29
-88 5 -115 -9 -10 -46 -35 -82 -56 -124 -73 -226 -197 -281 -342 -23 -60 -26
-82 -26 -202 -1 -165 19 -236 100 -362 30 -45 54 -91 54 -101 0 -32 -28 -74
-58 -86 -67 -28 -125 24 -202 184 -66 137 -83 212 -83 360 1 178 44 318 141
463 102 149 307 300 387 284 13 -2 33 -14 45 -27z m1033 -105 c21 -17 56 -113
211 -578 103 -307 186 -573 186 -593 0 -63 -62 -101 -123 -75 -40 16 -40 18
-128 284 l-54 162 -149 -2 -149 -3 -69 -205 c-37 -112 -76 -212 -85 -222 -46
-45 -134 -21 -148 41 -9 43 358 1151 394 1187 30 30 79 32 114 4z m1105 -13
c176 -93 250 -274 187 -457 -23 -65 -77 -135 -138 -175 -78 -51 -146 -65 -324
-65 l-153 0 0 -235 c0 -260 -4 -282 -59 -304 -34 -15 -67 -7 -98 22 l-23 20 0
589 0 589 25 25 25 25 253 -3 252 -3 53 -28z m916 2 c35 -41 34 -83 -3 -120
-29 -28 -32 -29 -135 -29 l-106 0 0 -455 0 -455 89 0 c48 0 102 -5 120 -11 68
-24 80 -122 18 -159 -30 -19 -52 -20 -320 -20 -237 0 -293 3 -317 15 -34 18
-50 43 -50 80 0 69 49 95 180 95 l90 0 0 455 0 455 -106 0 c-103 0 -106 1
-135 29 -31 31 -37 67 -17 104 24 46 27 46 355 47 l311 0 26 -31z"/>
<path d="M1695 3198 c-21 -62 -40 -119 -43 -125 -3 -10 17 -13 82 -13 47 0 86
3 86 7 0 15 -72 228 -80 236 -4 5 -25 -42 -45 -105z"/>
<path d="M2470 3336 l0 -186 136 0 c74 0 156 5 181 12 91 23 154 121 134 211
-12 49 -32 79 -77 114 -37 28 -39 28 -206 31 l-168 4 0 -186z"/>
<path d="M593 1849 c-90 -38 -137 -62 -135 -71 3 -12 158 -390 201 -491 l20
-45 188 78 c103 42 198 81 211 85 39 12 79 -14 135 -89 85 -112 177 -206 291
-296 66 -53 109 -94 115 -112 12 -33 10 -40 -82 -261 -37 -86 -67 -164 -69
-173 -2 -11 12 -22 42 -34 25 -10 147 -61 272 -113 l226 -94 83 200 c45 109
92 208 103 219 18 17 30 19 86 14 179 -16 398 -17 495 -3 110 16 147 10 167
-27 7 -11 46 -104 89 -206 42 -101 81 -186 87 -188 9 -3 520 204 534 217 3 3
-9 44 -28 91 -135 329 -134 326 -124 357 7 19 47 58 116 113 114 90 206 184
291 296 30 40 67 77 83 84 35 15 38 14 273 -84 l178 -74 20 46 c49 114 198
478 201 491 2 8 -32 28 -97 55 l-100 41 -326 -3 -325 -3 -28 -57 c-148 -304
-444 -566 -769 -681 -157 -55 -273 -74 -452 -75 -224 0 -388 35 -584 125 -266
123 -520 371 -646 630 l-28 56 -221 6 c-121 4 -251 13 -288 20 l-66 14 -139
-58z"/>
<path d="M1531 1833 c182 -305 460 -504 799 -573 118 -24 300 -29 411 -11 354
58 659 268 848 584 l23 37 -1052 0 -1052 0 23 -37z"/>
</g>
</svg>
